<svg width="20" height="20" viewBox="0 0 20 20" fill="none" xmlns="http://www.w3.org/2000/svg">
<g opacity="0.6">
<path fill-rule="evenodd" clip-rule="evenodd" d="M16.6083 8.39739H3.13668C2.82378 8.39739 2.56982 8.14344 2.56982 7.83053C2.56982 7.51763 2.82378 7.26367 3.13668 7.26367H16.6083C16.9212 7.26367 17.1752 7.51763 17.1752 7.83053C17.1752 8.14344 16.9212 8.39739 16.6083 8.39739Z" fill="#060707"/>
<path fill-rule="evenodd" clip-rule="evenodd" d="M13.2335 11.3486C12.9206 11.3486 12.6636 11.0946 12.6636 10.7817C12.6636 10.4688 12.9137 10.2148 13.2267 10.2148H13.2335C13.5464 10.2148 13.8003 10.4688 13.8003 10.7817C13.8003 11.0946 13.5464 11.3486 13.2335 11.3486Z" fill="#060707"/>
<path fill-rule="evenodd" clip-rule="evenodd" d="M9.8797 11.3486C9.56679 11.3486 9.30981 11.0946 9.30981 10.7817C9.30981 10.4688 9.55999 10.2148 9.8729 10.2148H9.8797C10.1926 10.2148 10.4466 10.4688 10.4466 10.7817C10.4466 11.0946 10.1926 11.3486 9.8797 11.3486Z" fill="#060707"/>
<path fill-rule="evenodd" clip-rule="evenodd" d="M6.51864 11.3486C6.20573 11.3486 5.948 11.0946 5.948 10.7817C5.948 10.4688 6.19893 10.2148 6.51184 10.2148H6.51864C6.83154 10.2148 7.0855 10.4688 7.0855 10.7817C7.0855 11.0946 6.83154 11.3486 6.51864 11.3486Z" fill="#060707"/>
<path fill-rule="evenodd" clip-rule="evenodd" d="M13.2335 14.2861C12.9206 14.2861 12.6636 14.0321 12.6636 13.7192C12.6636 13.4063 12.9137 13.1523 13.2267 13.1523H13.2335C13.5464 13.1523 13.8003 13.4063 13.8003 13.7192C13.8003 14.0321 13.5464 14.2861 13.2335 14.2861Z" fill="#060707"/>
<path fill-rule="evenodd" clip-rule="evenodd" d="M9.8797 14.2861C9.56679 14.2861 9.30981 14.0321 9.30981 13.7192C9.30981 13.4063 9.55999 13.1523 9.8729 13.1523H9.8797C10.1926 13.1523 10.4466 13.4063 10.4466 13.7192C10.4466 14.0321 10.1926 14.2861 9.8797 14.2861Z" fill="#060707"/>
<path fill-rule="evenodd" clip-rule="evenodd" d="M6.51864 14.2861C6.20573 14.2861 5.948 14.0321 5.948 13.7192C5.948 13.4063 6.19893 13.1523 6.51184 13.1523H6.51864C6.83154 13.1523 7.0855 13.4063 7.0855 13.7192C7.0855 14.0321 6.83154 14.2861 6.51864 14.2861Z" fill="#060707"/>
<path fill-rule="evenodd" clip-rule="evenodd" d="M12.9253 5.2881C12.6124 5.2881 12.3584 5.03414 12.3584 4.72124V2.23385C12.3584 1.92095 12.6124 1.66699 12.9253 1.66699C13.2382 1.66699 13.4921 1.92095 13.4921 2.23385V4.72124C13.4921 5.03414 13.2382 5.2881 12.9253 5.2881Z" fill="#060707"/>
<path fill-rule="evenodd" clip-rule="evenodd" d="M6.81979 5.2881C6.50688 5.2881 6.25293 5.03414 6.25293 4.72124V2.23385C6.25293 1.92095 6.50688 1.66699 6.81979 1.66699C7.1327 1.66699 7.38665 1.92095 7.38665 2.23385V4.72124C7.38665 5.03414 7.1327 5.2881 6.81979 5.2881Z" fill="#060707"/>
<mask id="mask0_43_347" style="mask-type:luminance" maskUnits="userSpaceOnUse" x="2" y="2" width="16" height="16">
<path fill-rule="evenodd" clip-rule="evenodd" d="M2.5 2.86035H17.2384V17.9168H2.5V2.86035Z" fill="white"/>
</mask>
<g mask="url(#mask0_43_347)">
<path fill-rule="evenodd" clip-rule="evenodd" d="M6.67284 3.99404C4.71302 3.99404 3.63372 5.03933 3.63372 6.93718V13.7765C3.63372 15.716 4.71302 16.7832 6.67284 16.7832H13.0655C15.0253 16.7832 16.1046 15.7356 16.1046 13.834V6.93718C16.1077 6.00375 15.8567 5.27817 15.3587 4.77933C14.8462 4.26537 14.0564 3.99404 13.0723 3.99404H6.67284ZM13.0655 17.9169H6.67285C4.0993 17.9169 2.5 16.3305 2.5 13.7766V6.93721C2.5 4.42186 4.0993 2.86035 6.67285 2.86035H13.0723C14.364 2.86035 15.432 3.24733 16.1613 3.9782C16.8695 4.68942 17.2422 5.71204 17.2384 6.93872V13.834C17.2384 16.3524 15.6391 17.9169 13.0655 17.9169Z" fill="#060707"/>
</g>
</g>
</svg>
