<svg width="177" height="39" viewBox="0 0 177 39" fill="none" xmlns="http://www.w3.org/2000/svg">
<path d="M5.64 23.72H14.6V28H1.19209e-07V0.0799994H5.64V23.72ZM28.3184 5.52C30.4251 5.52 32.3451 5.98667 34.0784 6.92C35.8118 7.85333 37.1851 9.18667 38.1984 10.92C39.2118 12.6267 39.7184 14.6133 39.7184 16.88C39.7184 19.1467 39.2118 21.1467 38.1984 22.88C37.1851 24.6133 35.7984 25.96 34.0384 26.92C32.3051 27.8533 30.3718 28.32 28.2384 28.32C26.1318 28.32 24.2118 27.8533 22.4784 26.92C20.7451 25.96 19.3718 24.6133 18.3584 22.88C17.3718 21.1467 16.8784 19.1467 16.8784 16.88C16.8784 14.6133 17.3851 12.6267 18.3984 10.92C19.4118 9.18667 20.7851 7.85333 22.5184 6.92C24.2518 5.98667 26.1851 5.52 28.3184 5.52ZM28.2784 10.28C26.6784 10.28 25.3318 10.8533 24.2384 12C23.1451 13.1467 22.5984 14.7867 22.5984 16.92C22.5984 18.36 22.8518 19.5867 23.3584 20.6C23.8918 21.5867 24.5851 22.3333 25.4384 22.84C26.2918 23.32 27.2251 23.56 28.2384 23.56C29.2251 23.56 30.1584 23.3067 31.0384 22.8C31.9184 22.2933 32.6251 21.5467 33.1584 20.56C33.7184 19.5467 33.9984 18.3333 33.9984 16.92C33.9984 15.48 33.7318 14.2667 33.1984 13.28C32.6651 12.2667 31.9584 11.52 31.0784 11.04C30.2251 10.5333 29.2918 10.28 28.2784 10.28ZM52.8997 5.52C54.473 5.52 55.873 5.85333 57.0997 6.52C58.3264 7.18667 59.313 8.10667 60.0597 9.28V5.84H65.6597V28.16C65.6597 30.2133 65.2464 32.0533 64.4197 33.68C63.6197 35.3067 62.393 36.5867 60.7397 37.52C59.113 38.48 57.0997 38.96 54.6997 38.96C51.5264 38.96 48.9397 38.2533 46.9397 36.84C44.9664 35.4533 43.8464 33.4667 43.5797 30.88H49.0997C49.4464 31.8667 50.113 32.64 51.0997 33.2C52.0864 33.7867 53.2864 34.08 54.6997 34.08C56.273 34.08 57.553 33.5867 58.5397 32.6C59.553 31.6133 60.0597 30.1333 60.0597 28.16V24.28C59.2864 25.5333 58.2864 26.52 57.0597 27.24C55.8597 27.96 54.473 28.32 52.8997 28.32C51.0064 28.32 49.273 27.84 47.6997 26.88C46.153 25.8933 44.913 24.5333 43.9797 22.8C43.073 21.0667 42.6197 19.0933 42.6197 16.88C42.6197 14.6667 43.073 12.7067 43.9797 11C44.913 9.26667 46.153 7.92 47.6997 6.96C49.273 6 51.0064 5.52 52.8997 5.52ZM54.1797 10.4C53.193 10.4 52.2464 10.6533 51.3397 11.16C50.4597 11.6667 49.7397 12.4133 49.1797 13.4C48.6197 14.36 48.3397 15.52 48.3397 16.88C48.3397 18.24 48.6197 19.4267 49.1797 20.44C49.7397 21.4267 50.4597 22.1733 51.3397 22.68C52.2464 23.1867 53.193 23.44 54.1797 23.44C55.193 23.44 56.1397 23.1867 57.0197 22.68C57.9264 22.1733 58.6597 21.4267 59.2197 20.44C59.7797 19.4533 60.0597 18.28 60.0597 16.92C60.0597 15.56 59.7797 14.3867 59.2197 13.4C58.6597 12.4133 57.9264 11.6667 57.0197 11.16C56.1397 10.6533 55.193 10.4 54.1797 10.4ZM81.5606 5.52C83.6673 5.52 85.5873 5.98667 87.3206 6.92C89.054 7.85333 90.4273 9.18667 91.4406 10.92C92.454 12.6267 92.9606 14.6133 92.9606 16.88C92.9606 19.1467 92.454 21.1467 91.4406 22.88C90.4273 24.6133 89.0406 25.96 87.2806 26.92C85.5473 27.8533 83.614 28.32 81.4806 28.32C79.374 28.32 77.454 27.8533 75.7206 26.92C73.9873 25.96 72.614 24.6133 71.6006 22.88C70.614 21.1467 70.1206 19.1467 70.1206 16.88C70.1206 14.6133 70.6273 12.6267 71.6406 10.92C72.654 9.18667 74.0273 7.85333 75.7606 6.92C77.494 5.98667 79.4273 5.52 81.5606 5.52ZM81.5206 10.28C79.9206 10.28 78.574 10.8533 77.4806 12C76.3873 13.1467 75.8406 14.7867 75.8406 16.92C75.8406 18.36 76.094 19.5867 76.6006 20.6C77.134 21.5867 77.8273 22.3333 78.6806 22.84C79.534 23.32 80.4673 23.56 81.4806 23.56C82.4673 23.56 83.4006 23.3067 84.2806 22.8C85.1606 22.2933 85.8673 21.5467 86.4006 20.56C86.9606 19.5467 87.2406 18.3333 87.2406 16.92C87.2406 15.48 86.974 14.2667 86.4406 13.28C85.9073 12.2667 85.2006 11.52 84.3206 11.04C83.4673 10.5333 82.534 10.28 81.5206 10.28Z" fill="#0B0B0B"/>
<path d="M96.3819 25.28C96.3819 24.5067 96.6352 23.8533 97.1419 23.32C97.6752 22.7867 98.3285 22.52 99.1019 22.52C99.8752 22.52 100.529 22.7867 101.062 23.32C101.595 23.8533 101.862 24.5067 101.862 25.28C101.862 26.0533 101.595 26.7067 101.062 27.24C100.529 27.7467 99.8752 28 99.1019 28C98.3552 28 97.7152 27.7333 97.1819 27.2C96.6485 26.6667 96.3819 26.0267 96.3819 25.28Z" fill="#8000FF"/>
<path d="M118.536 16.84C119.336 16.84 120.063 17.02 120.716 17.38C121.369 17.7267 121.883 18.2533 122.256 18.96C122.643 19.6533 122.836 20.5 122.836 21.5V28H121.036V21.8C121.036 20.6933 120.763 19.8533 120.216 19.28C119.683 18.7067 118.949 18.42 118.016 18.42C117.083 18.42 116.343 18.7067 115.796 19.28C115.263 19.8533 114.996 20.6933 114.996 21.8V28H113.196V21.8C113.196 20.6933 112.929 19.8533 112.396 19.28C111.863 18.7067 111.123 18.42 110.176 18.42C109.243 18.42 108.503 18.7067 107.956 19.28C107.423 19.8533 107.156 20.6933 107.156 21.8V28H105.336V17.02H107.156V18.8C107.516 18.16 108.009 17.6733 108.636 17.34C109.263 17.0067 109.963 16.84 110.736 16.84C111.576 16.84 112.336 17.0467 113.016 17.46C113.696 17.86 114.209 18.4467 114.556 19.22C114.956 18.4733 115.496 17.8933 116.176 17.48C116.869 17.0533 117.656 16.84 118.536 16.84ZM130.647 16.84C131.58 16.84 132.393 17.06 133.087 17.5C133.793 17.94 134.327 18.5133 134.687 19.22V17.02H136.527V28H134.687V25.76C134.327 26.48 133.793 27.0667 133.087 27.52C132.393 27.96 131.58 28.18 130.647 28.18C129.66 28.18 128.767 27.94 127.967 27.46C127.18 26.9667 126.553 26.2867 126.087 25.42C125.633 24.54 125.407 23.5467 125.407 22.44C125.407 21.3333 125.633 20.36 126.087 19.52C126.553 18.6667 127.18 18.0067 127.967 17.54C128.767 17.0733 129.66 16.84 130.647 16.84ZM130.967 18.42C130.313 18.42 129.7 18.58 129.127 18.9C128.567 19.22 128.113 19.6867 127.767 20.3C127.433 20.9 127.267 21.6133 127.267 22.44C127.267 23.2667 127.433 24 127.767 24.64C128.113 25.2667 128.567 25.7533 129.127 26.1C129.7 26.4467 130.313 26.62 130.967 26.62C131.633 26.62 132.247 26.4533 132.807 26.12C133.38 25.7867 133.833 25.3133 134.167 24.7C134.513 24.0733 134.687 23.3467 134.687 22.52C134.687 21.6933 134.513 20.9733 134.167 20.36C133.833 19.7333 133.38 19.2533 132.807 18.92C132.247 18.5867 131.633 18.42 130.967 18.42ZM141.745 18.88C142.398 17.52 143.512 16.84 145.085 16.84V18.74H144.605C143.672 18.74 142.958 18.9867 142.465 19.48C141.985 19.96 141.745 20.8 141.745 22V28H139.925V17.02H141.745V18.88ZM151.088 22.48L156.268 28H153.808L149.508 23.18V28H147.688V13.2H149.508V21.88L153.708 17.02H156.268L151.088 22.48ZM168.302 22.06C168.302 22.4467 168.276 22.8067 168.222 23.14H159.482C159.536 24.2333 159.876 25.1 160.502 25.74C161.142 26.3667 161.956 26.68 162.942 26.68C163.689 26.68 164.316 26.5133 164.822 26.18C165.342 25.8467 165.722 25.4067 165.962 24.86H167.922C167.576 25.82 166.976 26.6133 166.122 27.24C165.282 27.8667 164.222 28.18 162.942 28.18C161.916 28.18 160.996 27.9467 160.182 27.48C159.382 27.0133 158.756 26.3533 158.302 25.5C157.849 24.6333 157.622 23.64 157.622 22.52C157.622 21.3867 157.849 20.3933 158.302 19.54C158.756 18.6733 159.396 18.0067 160.222 17.54C161.049 17.0733 162.002 16.84 163.082 16.84C164.109 16.84 165.016 17.0667 165.802 17.52C166.589 17.9733 167.202 18.5933 167.642 19.38C168.082 20.1667 168.302 21.06 168.302 22.06ZM166.402 21.82C166.402 21.1133 166.249 20.5 165.942 19.98C165.636 19.4467 165.216 19.04 164.682 18.76C164.162 18.48 163.582 18.34 162.942 18.34C161.996 18.34 161.202 18.6533 160.562 19.28C159.922 19.8933 159.569 20.74 159.502 21.82H166.402ZM176.069 26.52V28H174.229C173.295 28 172.582 27.7733 172.089 27.32C171.609 26.8667 171.369 26.1533 171.369 25.18V18.5H169.949V17.02H171.369V14.3H173.209V17.02H176.049V18.5H173.209V25.18C173.209 25.6733 173.309 26.02 173.509 26.22C173.709 26.42 174.062 26.52 174.569 26.52H176.069Z" fill="#868686"/>
</svg>
